<svg xmlns="http://www.w3.org/2000/svg" width="21.831" height="21.831" viewBox="0 0 21.831 21.831"><defs><style>.a{fill:#c1c1c1;}</style></defs><g transform="translate(0 0)"><path class="a" d="M18.637,3.193a10.921,10.921,0,1,0,0,15.444A10.933,10.933,0,0,0,18.637,3.193ZM15.222,15.222a.84.84,0,0,1-1.188,0L10.915,12.1,7.648,15.37a.84.84,0,0,1-1.188-1.188l3.267-3.267L6.609,7.8A.84.84,0,1,1,7.8,6.609l3.119,3.119,2.97-2.97a.84.84,0,1,1,1.188,1.188l-2.97,2.97,3.119,3.119A.84.84,0,0,1,15.222,15.222Z" transform="translate(0 0)"/></g></svg>