<svg id="Group_637" data-name="Group 637" xmlns="http://www.w3.org/2000/svg" width="25" height="25" viewBox="0 0 25 25">
  <path id="Path_9614" data-name="Path 9614" d="M25,12.5A12.5,12.5,0,1,0,12.5,25,12.514,12.514,0,0,0,25,12.5Zm-23.751,0A11.251,11.251,0,1,1,12.5,23.751,11.263,11.263,0,0,1,1.249,12.5Z" fill="#2ec5e0"/>
  <path id="Path_9615" data-name="Path 9615" d="M168.583,138.329l3.512-3.512a.624.624,0,0,0-.882-.882l-2.447,2.447v-9.355a.627.627,0,0,0-1.254,0v9.35l-2.447-2.447a.624.624,0,1,0-.882.882l3.512,3.512a.634.634,0,0,0,.887.005Z" transform="translate(-155.639 -119.956)" fill="#2ec5e0" stroke="#2ec5e0" stroke-width="0.5"/>
</svg>
