<svg xmlns="http://www.w3.org/2000/svg" width="10.648" height="10.648" viewBox="0 0 10.648 10.648"><defs><style>.a{fill:#7d828b;}</style></defs><g transform="translate(0 0)"><g transform="translate(0 0)"><g transform="translate(0 0)"><path class="a" d="M7.892,80.42a.249.249,0,0,0-.342,0l-4.6,4.607a.242.242,0,0,0,.063.388l.378.189v.636l-1.158.331L1.061,85.4l.331-1.159h.636l.189.378a.242.242,0,0,0,.178.131.243.243,0,0,0,.21-.068l4.6-4.607a.242.242,0,0,0,0-.342l-.89-.891a.242.242,0,0,0-.171-.071h0a.242.242,0,0,0-.171.072L1.038,83.83s0,.006,0,.009a.237.237,0,0,0-.056.1l-.42,1.471-.548,1.92a.242.242,0,0,0,.233.309.246.246,0,0,0,.066-.009l1.918-.548,1.47-.421s.007,0,.012-.006A.448.448,0,0,0,3.79,86.6L3.8,86.6l4.982-4.941a.242.242,0,0,0,0-.343Z" transform="translate(0 -76.986)"/><path class="a" d="M294.083,1.73,292.631.277a.99.99,0,0,0-1.37,0l-.887.9a.242.242,0,0,0,0,.342l2.471,2.473a.242.242,0,0,0,.342,0l.9-.888a.969.969,0,0,0,0-1.37Z" transform="translate(-283.718 -0.002)"/></g></g></g></svg>