<svg xmlns="http://www.w3.org/2000/svg" width="8.946" height="16.547" viewBox="0 0 8.946 16.547"><defs><style>.a{fill:#fff;}</style></defs><g transform="translate(-22.077 3)"><path class="a" d="M30.686,0,28.54,0a3.768,3.768,0,0,0-3.969,4.072V5.95H22.414a.337.337,0,0,0-.337.338v2.72a.337.337,0,0,0,.337.337h2.157v6.864a.337.337,0,0,0,.337.337h2.815a.337.337,0,0,0,.337-.337V9.345h2.523a.337.337,0,0,0,.337-.337V6.287a.338.338,0,0,0-.338-.338H28.061V4.358c0-.765.182-1.153,1.179-1.153h1.445a.337.337,0,0,0,.337-.337V.341A.337.337,0,0,0,30.686,0Z" transform="translate(0 -3)"/></g></svg>