<svg xmlns="http://www.w3.org/2000/svg" width="11.492" height="11.648" viewBox="0 0 11.492 11.648"><defs><style>.a{fill:#7d828b;}</style></defs><path class="a" d="M12.9,5.7a.385.385,0,0,1-.544,0L7.547.884a.392.392,0,0,0-.554,0L2.18,5.7a.385.385,0,1,1-.544-.544L6.448.34a1.163,1.163,0,0,1,1.642,0L12.9,5.152A.385.385,0,0,1,12.9,5.7ZM7.263,1.83a.519.519,0,0,0-.356.14l-4.321,4.3v4.514a.9.9,0,0,0,.905.862H5.3V7.184a.6.6,0,0,1,.6-.56H8.633a.525.525,0,0,1,.517.56v4.465h1.9a.827.827,0,0,0,.82-.862V6.272l-4.281-4.3A.443.443,0,0,0,7.263,1.83Z" transform="translate(-1.523 0)"/></svg>