<svg xmlns="http://www.w3.org/2000/svg" width="259.267" height="41.844" viewBox="0 0 259.267 41.844">
  <g id="Notice-Tenant-logo" transform="translate(-394.843 -35.311)">
    <g id="LOGO" transform="translate(35 20)">
      <path id="Union_4" data-name="Union 4" d="M5.975,18.338C2.383,15.614.256,12.018.023,10.391A1.619,1.619,0,0,1,1.441,8.532h12.19s.013-5.134,0-6.584A2.2,2.2,0,0,1,15.158,0h7.054c1.473,0,1.681,1.948,1.681,1.948V8.532h5.085a2.034,2.034,0,0,1,1.6,1.9,1.765,1.765,0,0,1-1.6,1.725s-4.771.043-6.766.043A1.643,1.643,0,0,1,20.4,10.391V3.57H17.2v6.82c0,1.432-1.65,1.771-1.65,1.771H4.849s.015.43.989,1.515a9.863,9.863,0,0,0,2.2,2.145,18.751,18.751,0,0,0,11.15,3.408,16.249,16.249,0,0,0,11.383-4.748,39.573,39.573,0,0,0,4.061-5.41,1.831,1.831,0,0,1,2.192-.133,1.587,1.587,0,0,1,.631,2.084s-3.5,5.715-6.746,7.966A18.827,18.827,0,0,1,19.919,22.58q-.376.018-.762.017A23.693,23.693,0,0,1,5.975,18.338Zm30.2-12.9a2,2,0,1,1,2,2A2,2,0,0,1,36.178,5.441Z" transform="translate(361.822 34.558)" fill="#4cca89"/>
      <path id="Union_2" data-name="Union 2" d="M.157,23.689a2,2,0,1,1,2,2A2,2,0,0,1,.157,23.689Zm1.4-3.1c-1.64-.154-1.65-1.787-1.5-2.469s.366-1.58.366-1.58S4.561,0,20.595,0,41.023,16.232,41.023,16.232l.382,1.885c.094.35-.045,2.021-1.562,2.021h-9.3s-.285.006-.822-.53-8.694-8.578-8.694-8.578-.169-.382-.56,0-8.687,8.86-8.687,8.86a1.606,1.606,0,0,1-1.406.337,1.771,1.771,0,0,1-1.122-3.107C10.423,15.947,19.741,6.609,19.741,6.609a1.53,1.53,0,0,1,2.094.108c1.121,1,9.529,9.516,9.529,9.516a2.079,2.079,0,0,0,.943.305h5.151S34.657,3.593,20.595,3.656,3.925,17.121,3.925,17.121l-.287,1.852S3.236,20.6,1.76,20.6Q1.663,20.6,1.561,20.586Z" transform="translate(359.843 15.311)" fill="#2ec5e0"/>
    </g>
    <path id="Path_9611" data-name="Path 9611" d="M2.822,0H6.6V-9.724c0-2.482-.34-5.168-.51-7.514h.136L8.5-12.512,15.436,0h4.046V-22.236H15.708v9.656c0,2.482.34,5.3.51,7.582h-.136L13.8-9.724,6.868-22.236H2.822Zm28.8.408c4.182,0,7.956-3.2,7.956-8.738,0-5.576-3.774-8.772-7.956-8.772-4.148,0-7.922,3.2-7.922,8.772C23.7-2.788,27.472.408,31.62.408Zm0-3.2c-2.448,0-3.91-2.21-3.91-5.542,0-3.366,1.462-5.576,3.91-5.576s3.944,2.21,3.944,5.576C35.564-5,34.068-2.788,31.62-2.788ZM48.586.408a10.663,10.663,0,0,0,3.4-.612l-.68-2.89a4.787,4.787,0,0,1-1.734.374c-1.6,0-2.346-.952-2.346-2.924V-13.6h4.25v-3.094h-4.25V-21.25H43.962l-.476,4.556-2.584.17V-13.6h2.38v7.956C43.282-2.04,44.71.408,48.586.408ZM54.978,0h3.91V-16.694h-3.91ZM56.95-19.618a2.238,2.238,0,0,0,2.414-2.21,2.245,2.245,0,0,0-2.414-2.244,2.245,2.245,0,0,0-2.414,2.244A2.238,2.238,0,0,0,56.95-19.618ZM70.856.408a8.336,8.336,0,0,0,5.44-2.04L74.7-4.216a5.567,5.567,0,0,1-3.434,1.428C68.646-2.788,66.81-5,66.81-8.33c0-3.366,1.87-5.576,4.556-5.576a4.081,4.081,0,0,1,2.788,1.224l1.9-2.55a7.193,7.193,0,0,0-4.9-1.87c-4.454,0-8.364,3.2-8.364,8.772C62.8-2.788,66.3.408,70.856.408Zm15.062,0a10.534,10.534,0,0,0,5.712-1.8L90.3-3.842a6.974,6.974,0,0,1-3.876,1.224c-2.686,0-4.59-1.7-4.93-4.658H92.106a9.11,9.11,0,0,0,.17-1.9c0-4.658-2.38-7.922-6.9-7.922-3.91,0-7.684,3.332-7.684,8.772C77.69-2.822,81.294.408,85.918.408ZM81.464-9.928c.34-2.686,2.04-4.148,4.012-4.148,2.278,0,3.4,1.564,3.4,4.148ZM107.644,0h3.944V-18.9h6.426v-3.332h-16.8V-18.9h6.426Zm18.462.408a10.534,10.534,0,0,0,5.712-1.8l-1.326-2.448a6.974,6.974,0,0,1-3.876,1.224c-2.686,0-4.59-1.7-4.93-4.658h10.608a9.111,9.111,0,0,0,.17-1.9c0-4.658-2.38-7.922-6.9-7.922-3.91,0-7.684,3.332-7.684,8.772C117.878-2.822,121.482.408,126.106.408ZM121.652-9.928c.34-2.686,2.04-4.148,4.012-4.148,2.278,0,3.4,1.564,3.4,4.148ZM136.2,0h3.91V-11.662c1.394-1.36,2.346-2.074,3.808-2.074,1.836,0,2.618,1.02,2.618,3.774V0h3.91V-10.472c0-4.216-1.564-6.63-5.134-6.63a7.754,7.754,0,0,0-5.474,2.652h-.136l-.272-2.244H136.2ZM159.29.408a8.127,8.127,0,0,0,5.168-2.244h.136L164.866,0h3.23V-9.894c0-4.658-2.074-7.208-6.222-7.208a13.059,13.059,0,0,0-6.868,2.176l1.428,2.618a9.511,9.511,0,0,1,4.692-1.632c2.278,0,2.992,1.5,3.06,3.264-6.868.748-9.826,2.618-9.826,6.188A4.667,4.667,0,0,0,159.29.408Zm1.258-3.06c-1.394,0-2.414-.646-2.414-2.142,0-1.666,1.5-2.856,6.052-3.434v3.74C162.928-3.332,161.908-2.652,160.548-2.652ZM172.788,0h3.91V-11.662c1.394-1.36,2.346-2.074,3.808-2.074,1.836,0,2.618,1.02,2.618,3.774V0h3.91V-10.472c0-4.216-1.564-6.63-5.134-6.63a7.754,7.754,0,0,0-5.474,2.652h-.136l-.272-2.244h-3.23ZM197.71.408a10.663,10.663,0,0,0,3.4-.612l-.68-2.89a4.787,4.787,0,0,1-1.734.374c-1.6,0-2.346-.952-2.346-2.924V-13.6h4.25v-3.094h-4.25V-21.25h-3.264l-.476,4.556-2.584.17V-13.6h2.38v7.956C192.406-2.04,193.834.408,197.71.408Z" transform="translate(453 68)" fill="#2ec5e0"/>
  </g>
</svg>
