<svg xmlns="http://www.w3.org/2000/svg" width="10.599" height="8.328" viewBox="0 0 10.599 8.328"><defs><style>.a{fill:#7d828b;}</style></defs><g transform="translate(0 -54.82)"><g transform="translate(0 54.82)"><path class="a" d="M1.017,57.387q.2.142,1.213.843t1.55,1.079l.251.18q.192.139.319.225t.308.192a1.785,1.785,0,0,0,.34.16.937.937,0,0,0,.3.053h.012a.938.938,0,0,0,.3-.053,1.786,1.786,0,0,0,.34-.16q.18-.107.308-.192t.319-.225l.251-.18,2.768-1.922a2.81,2.81,0,0,0,.722-.727,1.562,1.562,0,0,0,.29-.893.954.954,0,0,0-.946-.946H.946a.845.845,0,0,0-.7.308A1.194,1.194,0,0,0,0,55.9a1.382,1.382,0,0,0,.325.807A2.936,2.936,0,0,0,1.017,57.387Z" transform="translate(0 -54.82)"/><path class="a" d="M10.008,184.952q-1.94,1.313-2.945,2.041-.337.248-.547.387a3.376,3.376,0,0,1-.559.284,1.7,1.7,0,0,1-.651.145H5.294a1.7,1.7,0,0,1-.651-.145,3.378,3.378,0,0,1-.559-.284q-.21-.139-.547-.387-.8-.586-2.94-2.041a3.133,3.133,0,0,1-.6-.515v4.7a.911.911,0,0,0,.278.668.911.911,0,0,0,.668.278H9.653a.949.949,0,0,0,.946-.947v-4.7A3.262,3.262,0,0,1,10.008,184.952Z" transform="translate(0 -181.752)"/></g></g></svg>