<svg xmlns="http://www.w3.org/2000/svg" width="31.458" height="41.944" viewBox="0 0 31.458 41.944"><defs><style>.a{fill:#b9c2cf;}.b{fill:#95a4b6;}.c{fill:#fff;}.d{fill:#dce1e7;}.e{fill:#012d4a;}</style></defs><g transform="translate(-64)"><path class="a" d="M122,6h26.215V42.7H122Z" transform="translate(-53.249 -5.508)"/><path class="b" d="M122,438h26.215v1.311H122Z" transform="translate(-53.249 -402.118)"/><path class="c" d="M96.215,64.554V94.7H70V58H89.661Z" transform="translate(-5.508 -53.249)"/><path class="d" d="M310,138h6.554v1.311H310Z" transform="translate(-225.847 -126.695)"/><path class="d" d="M70,490H96.215v1.311H70Z" transform="translate(-5.508 -449.858)"/><path class="b" d="M316.554,64.554H310V58" transform="translate(-225.847 -53.249)"/><g transform="translate(64)"><path class="e" d="M68.26,0V4.26H64V41.944H91.2v-4.26h4.26V0ZM90.215,40.961H64.983V5.243H83.661V11.8h6.554ZM84.644,10.814V5.938l4.876,4.876ZM94.475,36.7H91.2V11.1L84.356,4.26H69.243V.983H94.475Z" transform="translate(-64)"/><path class="e" d="M118,116h7.865v.983H118Z" transform="translate(-113.576 -106.497)"/><path class="e" d="M118,148h5.243v.983H118Z" transform="translate(-113.576 -135.876)"/><path class="e" d="M118,196h18.351v.983H118Z" transform="translate(-113.576 -179.943)"/><path class="e" d="M118,228h18.351v.983H118Z" transform="translate(-113.576 -209.322)"/><path class="e" d="M118,292h18.351v.983H118Z" transform="translate(-113.576 -268.079)"/><path class="e" d="M118,324h13.108v.983H118Z" transform="translate(-113.576 -297.457)"/><path class="e" d="M118,260h18.351v.983H118Z" transform="translate(-113.576 -238.7)"/><path class="e" d="M262,372h6.554v.983H262Z" transform="translate(-245.779 -341.525)"/></g></g></svg>