<svg xmlns="http://www.w3.org/2000/svg" width="14.759" height="14.759" viewBox="0 0 14.759 14.759"><defs><style>.a{fill:#fff;}</style></defs><g transform="translate(25.357 -2)"><path class="a" d="M1.894,0h10.97a1.849,1.849,0,0,1,1.894,1.894V12.865a1.849,1.849,0,0,1-1.894,1.894H1.894A1.849,1.849,0,0,1,0,12.865V1.894A1.849,1.849,0,0,1,1.894,0Zm8.857,1.64a.666.666,0,0,0-.664.664v1.59a.666.666,0,0,0,.664.664h1.668a.666.666,0,0,0,.664-.664V2.3a.666.666,0,0,0-.664-.664Zm2.34,4.6h-1.3a4.317,4.317,0,0,1,.189,1.266,4.518,4.518,0,0,1-4.588,4.445A4.518,4.518,0,0,1,2.806,7.508,4.309,4.309,0,0,1,3,6.242H1.64v6.234a.588.588,0,0,0,.587.587H12.5a.588.588,0,0,0,.587-.587V6.242Zm-5.7-1.766A2.919,2.919,0,0,0,4.429,7.347,2.919,2.919,0,0,0,7.393,10.22a2.919,2.919,0,0,0,2.964-2.872A2.919,2.919,0,0,0,7.393,4.475Z" transform="translate(-25.357 2)"/></g></svg>