<svg xmlns="http://www.w3.org/2000/svg" width="7.599" height="13.418" viewBox="0 0 7.599 13.418"><defs><style>.a{fill:#7d828b;}</style></defs><g transform="translate(-5.951)"><path class="a" d="M12.573,0H6.927a.977.977,0,0,0-.976.977V12.442a.976.976,0,0,0,.976.976h5.646a.977.977,0,0,0,.976-.976V.977A.977.977,0,0,0,12.573,0ZM8.357.594h2.787c.07,0,.128.105.128.235s-.057.236-.128.236H8.357c-.071,0-.127-.106-.127-.236S8.286.594,8.357.594Zm1.394,11.86a.623.623,0,1,1,.622-.624A.624.624,0,0,1,9.751,12.454Zm3.067-2.136H6.683V1.649h6.135v8.668Z"/></g></svg>