<svg id="round-information-button" xmlns="http://www.w3.org/2000/svg" width="18.237" height="18.237" viewBox="0 0 18.237 18.237">
  <g id="Group_670" data-name="Group 670">
    <path id="Path_9641" data-name="Path 9641" d="M9.118,0a9.118,9.118,0,1,0,9.119,9.118A9.129,9.129,0,0,0,9.118,0Zm0,17.041a7.922,7.922,0,1,1,7.923-7.922A7.931,7.931,0,0,1,9.118,17.041Z"/>
    <path id="Path_9642" data-name="Path 9642" d="M179.6,92.587a.8.8,0,1,0-.8-.8A.8.8,0,0,0,179.6,92.587Z" transform="translate(-170.653 -86.844)"/>
    <path id="Path_9643" data-name="Path 9643" d="M165.6,147.746h-.5v-5.7a.6.6,0,0,0-.6-.6h-1.1a.6.6,0,0,0,0,1.2h.5v5.1h-.5a.6.6,0,0,0,0,1.2h2.2a.6.6,0,1,0,0-1.2Z" transform="translate(-155.379 -134.999)"/>
  </g>
</svg>
