<svg xmlns="http://www.w3.org/2000/svg" width="23.405" height="26.748" viewBox="0 0 23.405 26.748">
  <g id="pdf" transform="translate(-32)">
    <path id="Path_9593" data-name="Path 9593" d="M97.672,0A1.677,1.677,0,0,0,96,1.672v23.4a1.677,1.677,0,0,0,1.672,1.672h16.718a1.677,1.677,0,0,0,1.672-1.672V6.687L109.374,0Z" transform="translate(-60.656)" fill="#e2e5e7"/>
    <path id="Path_9594" data-name="Path 9594" d="M353.672,6.687h5.015L352,0V5.015A1.677,1.677,0,0,0,353.672,6.687Z" transform="translate(-303.282)" fill="#b0b7bd"/>
    <path id="Path_9595" data-name="Path 9595" d="M389.015,133.015,384,128h5.015Z" transform="translate(-333.611 -121.313)" fill="#cad1d8"/>
    <path id="Path_9596" data-name="Path 9596" d="M52.061,249.195a.838.838,0,0,1-.836.836H32.836a.838.838,0,0,1-.836-.836v-8.359a.838.838,0,0,1,.836-.836H51.225a.838.838,0,0,1,.836.836Z" transform="translate(0 -227.462)" fill="#f15642"/>
    <g id="Group_623" data-name="Group 623" transform="translate(35.644 15.376)">
      <path id="Path_9597" data-name="Path 9597" d="M101.744,294.781a.46.46,0,0,1,.454-.461h1.544a1.671,1.671,0,0,1,0,3.342h-1.116v.883a.42.42,0,0,1-.428.461.45.45,0,0,1-.454-.461Zm.882.38v1.665h1.116a.833.833,0,0,0,0-1.665Z" transform="translate(-101.744 -294.32)" fill="#fff"/>
      <path id="Path_9598" data-name="Path 9598" d="M188.285,300.1a.418.418,0,0,1-.461-.414v-3.8a.455.455,0,0,1,.461-.415h1.531c3.054,0,2.987,4.625.06,4.625Zm.421-3.809v2.994h1.109c1.8,0,1.885-2.994,0-2.994Z" transform="translate(-183.327 -295.412)" fill="#fff"/>
      <path id="Path_9599" data-name="Path 9599" d="M288.01,296.326v1.062h1.7a.517.517,0,0,1,.481.474.464.464,0,0,1-.481.4h-1.7v1.4a.4.4,0,0,1-.4.414.425.425,0,0,1-.474-.414v-3.8a.422.422,0,0,1,.474-.415h2.346a.417.417,0,0,1,.468.415.462.462,0,0,1-.468.455H288.01Z" transform="translate(-277.451 -295.397)" fill="#fff"/>
    </g>
    <path id="Path_9600" data-name="Path 9600" d="M111.882,416.836H96v.836h15.882a.838.838,0,0,0,.836-.836V416A.838.838,0,0,1,111.882,416.836Z" transform="translate(-60.656 -394.267)" fill="#cad1d8"/>
  </g>
</svg>
