<svg xmlns="http://www.w3.org/2000/svg" width="33.46" height="38.24" viewBox="0 0 33.46 38.24"><defs><style>.a{fill:#e2e5e7;}.b{fill:#b0b7bd;}.c{fill:#cad1d8;}.d{fill:#f15642;}.e{fill:#fff;}</style></defs><g transform="translate(-32)"><path class="a" d="M98.39,0A2.4,2.4,0,0,0,96,2.39V35.85a2.4,2.4,0,0,0,2.39,2.39h23.9a2.4,2.4,0,0,0,2.39-2.39V9.56L115.12,0Z" transform="translate(-59.22)"/><path class="b" d="M354.39,9.56h7.17L352,0V7.17A2.4,2.4,0,0,0,354.39,9.56Z" transform="translate(-296.1)"/><path class="c" d="M391.17,135.17,384,128h7.17Z" transform="translate(-325.71 -118.44)"/><path class="d" d="M60.68,253.145a1.2,1.2,0,0,1-1.2,1.2H33.2a1.2,1.2,0,0,1-1.2-1.2V241.2A1.2,1.2,0,0,1,33.2,240h26.29a1.2,1.2,0,0,1,1.2,1.195Z" transform="translate(0 -222.075)"/><g transform="translate(37.209 21.982)"><path class="e" d="M101.744,294.98a.657.657,0,0,1,.649-.66H104.6a2.389,2.389,0,0,1,0,4.778H103v1.262a.6.6,0,0,1-.612.658.644.644,0,0,1-.649-.658Zm1.261.544v2.38h1.6a1.191,1.191,0,0,0,0-2.38Z" transform="translate(-101.744 -294.32)"/><path class="e" d="M188.484,302.084a.6.6,0,0,1-.66-.592v-5.428a.65.65,0,0,1,.66-.593h2.188c4.367,0,4.271,6.612.086,6.612Zm.6-5.446v4.281h1.586c2.58,0,2.695-4.281,0-4.281Z" transform="translate(-181.395 -295.386)"/><path class="e" d="M288.386,296.7v1.519h2.437a.739.739,0,0,1,.688.678.664.664,0,0,1-.688.574h-2.437v2.006a.566.566,0,0,1-.572.592.607.607,0,0,1-.678-.592v-5.428a.6.6,0,0,1,.678-.593h3.354a.6.6,0,0,1,.669.593.66.66,0,0,1-.669.65h-2.782Z" transform="translate(-273.289 -295.371)"/></g><path class="c" d="M118.705,417.2H96v1.2h22.705a1.2,1.2,0,0,0,1.2-1.2V416A1.2,1.2,0,0,1,118.705,417.2Z" transform="translate(-59.22 -384.93)"/></g></svg>