<svg xmlns="http://www.w3.org/2000/svg" width="15.418" height="15.418" viewBox="0 0 15.418 15.418"><defs><style>.a{fill:#2ec5e0;}</style></defs><path class="a" d="M7.709,0a7.709,7.709,0,1,0,7.709,7.709A7.718,7.718,0,0,0,7.709,0Zm0,14.432a6.723,6.723,0,1,1,6.723-6.723A6.731,6.731,0,0,1,7.709,14.432Z"/><path class="a" d="M69.756,65.419h-3.35v-3.35a.493.493,0,1,0-.986,0v3.35h-3.35a.493.493,0,1,0,0,.986h3.35v3.35a.493.493,0,1,0,.986,0v-3.35h3.35a.493.493,0,0,0,0-.986Z" transform="translate(-58.203 -58.203)"/></svg>